<?xml version="1.0" standalone="no"?>
<!DOCTYPE svg PUBLIC "-//W3C//DTD SVG 20010904//EN"
 "http://www.w3.org/TR/2001/REC-SVG-20010904/DTD/svg10.dtd">
<svg version="1.0" xmlns="http://www.w3.org/2000/svg"
 width="200.000000pt" height="200.000000pt" viewBox="0 0 200.000000 200.000000"
 preserveAspectRatio="xMidYMid meet">
<g transform="translate(0.000000,200.000000) scale(0.100000,-0.100000)"
fill="#000000" stroke="none">
<path d="M1195 1635 l-60 -34 -5 -501 -5 -501 -193 -111 -194 -111 -29 17
c-16 9 -102 59 -191 111 l-163 93 -5 311 -5 311 -68 -41 -67 -40 2 -287 3
-287 170 -97 c315 -182 345 -198 357 -197 7 0 128 67 268 148 l255 149 3 467
c2 404 4 466 17 461 8 -3 115 -63 237 -134 123 -71 233 -134 246 -141 22 -12
22 -11 22 67 l0 79 -263 152 c-145 83 -266 151 -268 151 -2 0 -31 -16 -64 -35z"/>
<path d="M715 1651 c-6 -5 -26 -17 -45 -27 -19 -11 -129 -73 -243 -139 l-207
-120 0 -72 0 -72 118 69 c64 38 140 81 167 96 28 14 52 29 55 33 3 3 23 15 45
26 22 11 56 30 75 42 19 13 40 23 47 23 10 0 13 -97 13 -469 l0 -469 53 -30
c52 -30 52 -30 82 -12 17 11 45 27 63 36 l34 17 -51 29 -51 30 0 471 0 472
-35 23 c-19 12 -39 22 -44 22 -5 0 -14 7 -21 15 -14 17 -41 20 -55 6z"/>
<path d="M1660 931 l0 -281 -37 -24 c-21 -13 -99 -59 -173 -102 -74 -43 -147
-85 -162 -93 -25 -15 -30 -15 -61 2 l-33 18 -57 -33 c-31 -18 -57 -35 -57 -38
0 -4 12 -13 28 -21 15 -7 55 -30 89 -51 l61 -37 34 18 c18 10 74 42 123 71 50
29 151 88 225 130 l135 78 3 286 c2 266 1 287 -15 293 -10 4 -20 9 -23 13 -3
3 -22 16 -42 29 l-38 23 0 -281z"/>
</g>
</svg>
